<?xml version="1.0" encoding="utf-8"?>
<!-- Generator: Adobe Illustrator 24.0.1, SVG Export Plug-In . SVG Version: 6.00 Build 0)  -->
<svg version="1.1" id="Layer_1" xmlns="http://www.w3.org/2000/svg" xmlns:xlink="http://www.w3.org/1999/xlink" x="0px" y="0px"
	 viewBox="0 0 22 22" style="enable-background:new 0 0 22 22;" xml:space="preserve">
<style type="text/css">
	.st0{fill:#9C0404;}
	.st1{fill:url(#SVGID_1_);}
	.st2{fill:url(#SVGID_2_);}
</style>
<g>
	<path class="st0" d="M11,22L11,22C4.92,22,0,17.08,0,11v0C0,4.92,4.92,0,11,0h0c6.08,0,11,4.92,11,11v0C22,17.08,17.08,22,11,22z"
		/>
</g>
<g>
	
		<radialGradient id="SVGID_1_" cx="11" cy="11" r="11" gradientTransform="matrix(-1 0 0 -1 22 22)" gradientUnits="userSpaceOnUse">
		<stop  offset="0" style="stop-color:#5C0404;stop-opacity:0.2"/>
		<stop  offset="0.8557" style="stop-color:#5C0404;stop-opacity:0.799"/>
		<stop  offset="1" style="stop-color:#5C0404;stop-opacity:0.9"/>
	</radialGradient>
	<path class="st1" d="M11,0L11,0c6.08,0,11,4.92,11,11v0c0,6.08-4.92,11-11,11h0C4.92,22,0,17.08,0,11v0C0,4.92,4.92,0,11,0z"/>
</g>
<g>
	<radialGradient id="SVGID_2_" cx="11" cy="11" r="11" gradientUnits="userSpaceOnUse">
		<stop  offset="0" style="stop-color:#FF0025;stop-opacity:0.9"/>
		<stop  offset="0.4077" style="stop-color:#FD0025;stop-opacity:0.6146"/>
		<stop  offset="0.5545" style="stop-color:#F60023;stop-opacity:0.5118"/>
		<stop  offset="0.6592" style="stop-color:#EB0121;stop-opacity:0.4385"/>
		<stop  offset="0.7439" style="stop-color:#DA011D;stop-opacity:0.3793"/>
		<stop  offset="0.8164" style="stop-color:#C40119;stop-opacity:0.3285"/>
		<stop  offset="0.8806" style="stop-color:#A80213;stop-opacity:0.2836"/>
		<stop  offset="0.9386" style="stop-color:#88030D;stop-opacity:0.243"/>
		<stop  offset="0.9902" style="stop-color:#640406;stop-opacity:0.2068"/>
		<stop  offset="1" style="stop-color:#5C0404;stop-opacity:0.2"/>
	</radialGradient>
	<path class="st2" d="M11,22L11,22C4.92,22,0,17.08,0,11v0C0,4.92,4.92,0,11,0h0c6.08,0,11,4.92,11,11v0C22,17.08,17.08,22,11,22z"
		/>
</g>
</svg>
