<?xml version="1.0" encoding="utf-8"?>
<!-- Generator: Adobe Illustrator 24.0.1, SVG Export Plug-In . SVG Version: 6.00 Build 0)  -->
<svg version="1.1" id="Layer_1" xmlns="http://www.w3.org/2000/svg" xmlns:xlink="http://www.w3.org/1999/xlink" x="0px" y="0px"
	 viewBox="0 0 1600 1000" style="enable-background:new 0 0 1600 1000;" xml:space="preserve">
<style type="text/css">
	.st0{fill:none;stroke:#000000;stroke-miterlimit:10;}
	.st1{fill:none;stroke:#A8A8A8;}
	.st2{fill:none;stroke:#000000;}
	.st3{fill:none;}
	.st4{font-family:'MyriadPro-Regular';}
	.st5{font-size:12px;}
	.st6{fill:none;stroke:#000000;stroke-width:1;stroke-miterlimit:9.9992;}
	.st7{fill:#993333;}
	.st8{opacity:0.68;fill:#E69B24;enable-background:new    ;}
	.st9{fill:none;stroke:#A8A8A8;stroke-miterlimit:10;}
	.st10{font-size:58.5802px;}
	.st11{fill:url(#SVGID_1_);}
	.st12{fill:url(#SVGID_2_);}
	.st13{fill:url(#SVGID_3_);}
	.st14{fill:#A5A5A5;}
	.st15{fill:#FFFFFF;}
	.st16{fill:#CCC4BC;}
	.st17{fill:#A68823;}
	.st18{fill:#F5F5F5;}
	.st19{fill:#A39C96;}
	.st20{fill:#444444;}
	.st21{fill:#E0E0E0;}
</style>
<rect x="888.1" y="251.2" class="st0" width="461.8" height="494.1"/>
<rect x="908.5" y="339" class="st1" width="420.2" height="137.2"/>
<rect x="919.4" y="364.9" class="st0" width="84.1" height="103.5"/>
<rect x="934.9" y="372.1" class="st0" width="55.2" height="43.4"/>
<rect x="934.9" y="433.2" class="st0" width="55.2" height="30.7"/>
<rect x="938.7" y="439.3" class="st2" width="8.2" height="7.5"/>
<rect x="958.4" y="439.1" class="st2" width="8.2" height="7.5"/>
<rect x="976.7" y="439.1" class="st2" width="8.2" height="7.5"/>
<rect x="1020.8" y="364.9" class="st0" width="84.1" height="103.5"/>
<rect x="1036.3" y="372.1" class="st0" width="55.2" height="43.4"/>
<rect x="1036.3" y="433.2" class="st0" width="55.2" height="30.7"/>
<rect x="1040.1" y="439.3" class="st2" width="8.2" height="7.5"/>
<rect x="1059.8" y="439.1" class="st2" width="8.2" height="7.5"/>
<rect x="1078.1" y="439.1" class="st2" width="8.2" height="7.5"/>
<rect x="1122.2" y="364.9" class="st2" width="84.1" height="103.5"/>
<rect x="1137.7" y="372.1" class="st2" width="55.2" height="43.4"/>
<rect x="1137.7" y="433.2" class="st2" width="55.2" height="30.7"/>
<rect x="1141.5" y="439.3" class="st2" width="8.2" height="7.5"/>
<rect x="1161.2" y="439.1" class="st2" width="8.2" height="7.5"/>
<rect x="1179.5" y="439.1" class="st2" width="8.2" height="7.5"/>
<rect x="1223.1" y="364.9" class="st2" width="84.1" height="103.5"/>
<rect x="1238.6" y="372.1" class="st2" width="55.2" height="43.4"/>
<rect x="1238.6" y="433.2" class="st1" width="55.2" height="30.7"/>
<rect x="1242.4" y="439.3" class="st2" width="8.2" height="7.5"/>
<rect x="1262.1" y="439.1" class="st2" width="8.2" height="7.5"/>
<rect x="1280.4" y="439.1" class="st2" width="8.2" height="7.5"/>
<line class="st1" x1="919.4" y1="546.7" x2="919.4" y2="475.9"/>
<rect x="904.4" y="554.2" class="st3" width="180.4" height="114.9"/>
<text transform="matrix(1 0 0 1 904.3508 562.7075)" class="st4 st5">MESSAGE</text>
<text transform="matrix(1 0 0 1 904.3508 577.1075)" class="st4 st5">NEEDS TO KNOW</text>
<text transform="matrix(1 0 0 1 904.3508 591.5075)" class="st4 st5">-&gt; the entire message</text>
<text transform="matrix(1 0 0 1 904.3508 605.9075)" class="st4 st5">-&gt; which prompt is active</text>
<text transform="matrix(1 0 0 1 904.3508 620.3075)" class="st4 st5">-&gt; which prompt is last</text>
<text transform="matrix(1 0 0 1 904.3508 634.7075)" class="st4 st5">NEEDS TO TELL GAMEMASTER</text>
<text transform="matrix(1 0 0 1 904.3508 649.1075)" class="st4 st5">-&gt; when it’s complete</text>
<line class="st1" x1="1293.7" y1="459.1" x2="1364.5" y2="459.1"/>
<g>
	<rect x="1368.7" y="454.8" class="st3" width="180.3" height="201.3"/>
	<text transform="matrix(1 0 0 1 1368.6987 463.3369)" class="st4 st5">SEQUENCE</text>
	<text transform="matrix(1 0 0 1 1368.6987 477.7369)" class="st4 st5">NEEDS TO KNOW</text>
	<text transform="matrix(1 0 0 1 1368.6987 492.1369)" class="st4 st5">-&gt; its character</text>
	<text transform="matrix(1 0 0 1 1368.6987 506.5369)" class="st4 st5">-&gt; its signal elements sequence w/ </text>
	<text transform="matrix(1 0 0 1 1368.6987 520.9369)" class="st4 st5">target press duration</text>
	<text transform="matrix(1 0 0 1 1368.6987 535.3369)" class="st4 st5">-&gt; its display status (complete, </text>
	<text transform="matrix(1 0 0 1 1368.6987 549.7369)" class="st4 st5">active, incomplete)</text>
	<text transform="matrix(1 0 0 1 1368.6987 564.1369)" class="st4 st5">-&gt; which, if any, of its elements are </text>
	<text transform="matrix(1 0 0 1 1368.6987 578.5369)" class="st4 st5">active</text>
	<text transform="matrix(1 0 0 1 1368.6987 592.9369)" class="st4 st5">-&gt; what the last signal length was</text>
	<text transform="matrix(1 0 0 1 1368.6987 607.3369)" class="st4 st5">NEEDS TO TELL PROMPT</text>
	<text transform="matrix(1 0 0 1 1368.6987 621.7369)" class="st4 st5">-&gt; when an element’s target signal </text>
	<text transform="matrix(1 0 0 1 1368.6987 636.1369)" class="st4 st5">duration is met, so it is completed</text>
</g>
<line class="st2" x1="864.1" y1="414" x2="934.9" y2="414"/>
<rect x="615.1" y="379.2" class="st3" width="246.7" height="114.9"/>
<text transform="matrix(1 0 0 1 825.9906 417.7067)" class="st4 st5">LETTER</text>
<text transform="matrix(1 0 0 1 711.5806 432.1067)" class="st4 st5">DISPLAYED | NEEDS TO KNOW</text>
<text transform="matrix(1 0 0 1 787.5806 446.5067)" class="st4 st5">-&gt; its character</text>
<text transform="matrix(1 0 0 1 765.5206 460.9067)" class="st4 st5">-&gt; its current status</text>
<g>
	<rect x="1180.1" y="509.5" class="st3" width="180.3" height="114.9"/>
	<text transform="matrix(1 0 0 1 1180.0734 517.9983)" class="st4 st5">CODESIGNAL</text>
	<text transform="matrix(1 0 0 1 1180.0734 532.3984)" class="st4 st5">DISPLAYED | NEEDS TO KNOW</text>
	<text transform="matrix(1 0 0 1 1180.0734 546.7984)" class="st4 st5">-&gt; its className</text>
	<text transform="matrix(1 0 0 1 1180.0734 561.1984)" class="st4 st5">-&gt; its current statu</text>
	<text transform="matrix(1 0 0 1 1271.6433 561.1984)" class="st4 st5">s</text>
</g>
<line class="st2" x1="1121.5" y1="645" x2="1121.5" y2="755.6"/>
<rect x="1097.6" y="758.3" class="st3" width="180.3" height="162.9"/>
<text transform="matrix(1 0 0 1 1097.5588 768.7696)" class="st4 st5">SWITCH</text>
<text transform="matrix(1 0 0 1 1097.5588 783.1696)" class="st4 st5">DISPLAYED | NEEDS TO KNOW</text>
<text transform="matrix(1 0 0 1 1097.5588 797.5696)" class="st4 st5">-&gt; whether it’s pressed</text>
<text transform="matrix(1 0 0 1 1097.5588 811.9696)" class="st4 st5">-&gt; how long it’s pressed</text>
<text transform="matrix(1 0 0 1 1097.5588 826.3696)" class="st4 st5">-&gt; whether the duration matches a </text>
<text transform="matrix(1 0 0 1 1097.5588 840.7696)" class="st4 st5">dot or a dash or neither</text>
<text transform="matrix(1 0 0 1 1097.5588 855.1696)" class="st4 st5">-&gt; how to play the sound or flash </text>
<text transform="matrix(1 0 0 1 1097.5588 869.5696)" class="st4 st5">the light</text>
<text transform="matrix(1 0 0 1 1097.5588 883.9696)" class="st4 st5">NEEDS TO TELL GAMEMASTER</text>
<text transform="matrix(1 0 0 1 1097.5588 898.3696)" class="st4 st5">-&gt; when a Signal has been </text>
<text transform="matrix(1 0 0 1 1097.5588 912.7696)" class="st4 st5">input, and what it was</text>
<line class="st2" x1="1307.3" y1="372.1" x2="1378.1" y2="372.1"/>
<g>
	<rect x="1379.1" y="319.4" class="st3" width="149.6" height="123.7"/>
	<text transform="matrix(1 0 0 1 1379.0671 327.847)" class="st4 st5">PROMPT</text>
	<text transform="matrix(1 0 0 1 1379.0671 342.247)" class="st4 st5">NEEDS TO KNOW</text>
	<text transform="matrix(1 0 0 1 1379.0671 356.647)" class="st4 st5">-&gt; its character</text>
	<text transform="matrix(1 0 0 1 1379.0671 371.047)" class="st4 st5">-&gt; its current status </text>
	<text transform="matrix(1 0 0 1 1379.0671 385.447)" class="st4 st5">-&gt; when it’s completed</text>
	<text transform="matrix(1 0 0 1 1379.0671 399.847)" class="st4 st5">NEEDS TO TELL PROMPT</text>
	<text transform="matrix(1 0 0 1 1500.8372 399.847)" class="st4 st5">-</text>
	<text transform="matrix(1 0 0 1 1379.0671 414.247)" class="st4 st5">FIELD</text>
	<text transform="matrix(1 0 0 1 1379.0671 428.647)" class="st4 st5">-&gt; when it is completed</text>
</g>
<circle cx="1120.7" cy="615.2" r="29.8"/>
<line class="st2" x1="817.3" y1="509.3" x2="888.1" y2="509.3"/>
<text transform="matrix(1 0 0 1 743.1558 513.0142)" class="st4 st5">GAMEMASTER </text>
<polyline class="st2" points="1230.1,504.2 1230.1,442.8 1242.4,442.8 "/>
<text transform="matrix(1 0 0 1 1391.9934 235.9422)" class="st4 st5">YOUR SPEED: speed</text>
<line class="st2" x1="1192.3" y1="617" x2="1173.4" y2="617"/>
<g>
	<text transform="matrix(1 0 0 1 1195.6858 620.0505)" class="st4 st5">SIGNAL (not displayed)</text>
	<text transform="matrix(1 0 0 1 1195.6858 634.4505)" class="st4 st5">NEEDS TO KNOW</text>
	<text transform="matrix(1 0 0 1 1195.6858 648.8505)" class="st4 st5">-&gt; whether it’s a dot</text>
	<text transform="matrix(1 0 0 1 1195.6858 663.2505)" class="st4 st5">or a dash</text>
</g>
<g>
	<circle class="st0" cx="1136.1" cy="618.1" r="37.4"/>
</g>
<rect x="887.7" y="251.7" class="st0" width="461.8" height="30.7"/>
<text transform="matrix(1 0 0 1 1372.9893 262.4408)" class="st4 st5">YOUR ACCURACY: accuracy</text>
<text transform="matrix(1 0 0 1 1270.274 270.4754)" class="st4 st5">SCORE: score </text>
<text transform="matrix(1 0 0 1 899.4745 306.3722)" class="st4 st5">NavBar</text>
<rect x="1360.4" y="221.8" class="st2" width="154.8" height="20.2"/>
<rect x="1360.4" y="248.4" class="st2" width="154.8" height="20.2"/>
<g>
	
		<ellipse transform="matrix(0.2298 -0.9732 0.9732 0.2298 741.364 1474.8588)" class="st6" cx="1302.5" cy="269" rx="37.4" ry="37.4"/>
</g>
<text transform="matrix(1 0 0 1 744.7231 209.0224)" class="st4 st5">prompts on/off</text>
<text transform="matrix(1 0 0 1 736.5315 233.5988)" class="st4 st5">light / sound mode</text>
<text transform="matrix(1 0 0 1 1171.1549 192.0624)" class="st4 st5">Speedbar</text>
<rect x="699" y="194.9" class="st2" width="156" height="20.2"/>
<rect x="699" y="220" class="st2" width="156" height="20.2"/>
<text transform="matrix(1 0 0 1 713.8484 258.7408)" class="st4 st5">target characters/minute</text>
<rect x="699" y="245.2" class="st2" width="154.8" height="20.2"/>
<text transform="matrix(1 0 0 1 729.2859 283.8828)" class="st4 st5">difficulty level, etc.</text>
<rect x="699" y="270.3" class="st2" width="154.8" height="20.2"/>
<rect x="892.2" y="256.4" class="st2" width="32.4" height="20.2"/>
<line class="st0" x1="897.9" y1="260.9" x2="919.4" y2="260.9"/>
<line class="st0" x1="897.7" y1="266.4" x2="919.2" y2="266.4"/>
<line class="st0" x1="897.7" y1="271.7" x2="919.2" y2="271.7"/>
<polyline class="st0" points="853.8,290.5 892.2,276.5 892.2,256.4 855,194.9 "/>
<polyline class="st0" points="1360.4,268.5 1349.5,282.4 1349.5,251.7 1360.4,221.8 "/>
<line class="st2" x1="1177.4" y1="195.1" x2="1177.4" y2="257.5"/>
<g>
	<rect x="930.4" y="257.5" class="st0" width="320.2" height="17.8"/>
	<rect x="930.8" y="258" class="st7" width="113.8" height="16.8"/>
	<rect x="930.8" y="258" class="st8" width="88.7" height="16.8"/>
</g>
<rect x="880.2" y="714.6" class="st1" width="477.4" height="38.8"/>
<text transform="matrix(1 0 0 1 900.9571 783.1697)" class="st4 st5">ShareBar</text>
<text transform="matrix(1 0 0 1 915.6069 733.4218)" class="st4 st5">share this message</text>
<rect x="892.2" y="719.9" class="st2" width="154.8" height="20.2"/>
<text transform="matrix(1 0 0 1 1236.8339 733.4225)" class="st4 st5">send a challenge</text>
<rect x="1051.5" y="719.9" class="st2" width="154.8" height="20.2"/>
<text transform="matrix(1 0 0 1 1080.6786 733.4227)" class="st4 st5">share your scores</text>
<rect x="1211.5" y="719.9" class="st2" width="132.7" height="20.2"/>
<text transform="matrix(1 0 0 1 891.4501 191.3085)" class="st4 st5">menu</text>
<line class="st2" x1="897.7" y1="194.3" x2="897.7" y2="256.8"/>
<text transform="matrix(1 0 0 1 1297.7744 166.4243)" class="st4 st5">score</text>
<line class="st2" x1="1304" y1="169.4" x2="1304" y2="231.9"/>
<text transform="matrix(1 0 0 1 1405.4502 181.4853)" class="st4 st5">Stats</text>
<line class="st1" x1="1411.7" y1="184.5" x2="1411.7" y2="215.7"/>
<rect x="1354.9" y="215.7" class="st1" width="167.5" height="66.6"/>
<text transform="matrix(1 0 0 1 739.5067 150.3506)" class="st4 st5">S</text>
<text transform="matrix(1 0 0 1 745.5067 150.3506)" class="st4 st5">ettingsControls</text>
<line class="st1" x1="745.7" y1="153.3" x2="745.7" y2="184.6"/>
<rect x="689" y="184.6" class="st1" width="176.6" height="119.4"/>
<text transform="matrix(1 0 0 1 1003.4743 307.802)" class="st4 st5">userSpeedFill</text>
<line class="st2" x1="1009.7" y1="272.4" x2="1009.7" y2="299.8"/>
<line class="st2" x1="1036.3" y1="235" x2="1036.3" y2="262.4"/>
<text transform="matrix(1 0 0 1 1031.2944 233.5986)" class="st4 st5">opponentSpeedFill</text>
<rect x="926.6" y="242" class="st9" width="428.3" height="54.3"/>
<line class="st2" x1="904.4" y1="282.6" x2="904.4" y2="297.6"/>
<g>
	<text transform="matrix(1 0 0 1 950.0077 93.686)" class="st4 st5">ScoreKeeper</text>
</g>
<line class="st1" x1="956.2" y1="179.3" x2="956.2" y2="241.8"/>
<line class="st1" x1="906.9" y1="753.4" x2="906.9" y2="773.1"/>
<rect x="740.2" y="520.9" class="st3" width="171.5" height="166.8"/>
<text transform="matrix(1 0 0 1 740.217 529.4346)" class="st4 st5">NEEDS TO KNOW</text>
<text transform="matrix(1 0 0 1 740.217 543.8346)" class="st4 st5">-&gt; message (for length)</text>
<text transform="matrix(1 0 0 1 740.217 558.2346)" class="st4 st5">-&gt; messageDuration</text>
<text transform="matrix(1 0 0 1 740.217 572.6346)" class="st4 st5">-&gt; lastSignalReceived</text>
<text transform="matrix(1 0 0 1 740.217 587.0346)" class="st4 st5">-&gt; timerShouldRun</text>
<text transform="matrix(1 0 0 1 740.217 601.4346)" class="st4 st5">-&gt; elapsedSeconds?</text>
<text transform="matrix(1 0 0 1 740.217 615.8346)" class="st4 st5">-&gt; errorCount</text>
<rect x="949" y="101.2" class="st3" width="171.5" height="166.8"/>
<text transform="matrix(1 0 0 1 948.9787 109.6714)" class="st4 st5">NEEDS TO KNOW</text>
<text transform="matrix(1 0 0 1 948.9787 124.0715)" class="st4 st5">-&gt; when to start &amp; stop timer</text>
<text transform="matrix(1 0 0 1 948.9787 138.4714)" class="st4 st5">-&gt; elapsedTime</text>
<text transform="matrix(1 0 0 1 948.9787 152.8715)" class="st4 st5">-&gt; running tally of errors</text>
<text transform="matrix(1 0 0 1 948.9787 167.2715)" class="st4 st5">-&gt; how to calculate score</text>
<text transform="matrix(1 0 0 1 -348.1227 93.3673)" class="st4 st5">user inputs signal</text>
<text transform="matrix(1 0 0 1 -340.7159 206.6051)" class="st4 st5">GM broadcasts signal</text>
<text transform="matrix(1 0 0 1 -345.2917 140.1493)" class="st4 st5">switch evaluates</text>
<polyline class="st0" points="-303.3,172.9 -303.3,197.5 -298.1,189.7 "/>
<text transform="matrix(1 0 0 1 -361.2497 171.1321)" class="st4 st5">switch transmits signal</text>
<text transform="matrix(1 0 0 1 -376.4109 265.5537)" class="st4 st5">dot or dash</text>
<text transform="matrix(1 0 0 1 -279.0211 242.9515)" class="st4 st5">error</text>
<polyline class="st0" points="-325,213.1 -349.6,251.3 -335.2,246.8 "/>
<polyline class="st0" points="-296.4,211.2 -284.3,231.1 -283.8,221.8 "/>
<polyline class="st0" points="-251.2,241.5 -222.3,241.5 -230,236.2 "/>
<text transform="matrix(1 0 0 1 -214.7322 242.9514)" class="st4 st5">error count +1</text>
<text transform="matrix(1 0 0 1 -381.6776 314.9706)" class="st4 st5">match</text>
<text transform="matrix(1 0 0 1 -302.3351 326.7633)" class="st4 st5">error</text>
<polyline class="st0" points="-364.9,274.7 -370.4,296.6 -363.4,290.4 "/>
<polyline class="st0" points="-334.8,270.2 -307.6,315 -307.1,305.6 "/>
<polyline class="st0" points="-202.2,89.2 -119.5,89.2 -141.8,82.8 "/>
<text transform="matrix(1 0 0 1 -109.6738 79.7026)" class="st4 st5">-game is active</text>
<text transform="matrix(1 0 0 1 -109.6738 94.1025)" class="st4 st5">- timer starts</text>
<polyline class="st0" points="-273.6,323.3 -244.7,323.3 -252.4,318.1 "/>
<text transform="matrix(1 0 0 1 -237.1177 324.7293)" class="st4 st5">error count +1</text>
<text transform="matrix(1 0 0 1 -367.887 352.0415)" class="st4 st5">last?</text>
<line class="st0" x1="-363.4" y1="319.9" x2="-363.4" y2="340.6"/>
<polyline class="st0" points="-368.1,354.2 -376.4,375.2 -368.7,369.9 "/>
<polyline class="st0" points="-349.6,353.9 -337.5,373.9 -337,364.5 "/>
<text transform="matrix(1 0 0 1 -383.85 386.1417)" class="st4 st5">no</text>
<text transform="matrix(1 0 0 1 -341.3762 384.5554)" class="st4 st5">yes</text>
<text transform="matrix(1 0 0 1 -228.6084 93.3671)" class="st4 st5">first?</text>
<polyline class="st0" points="-334.8,388.4 -334.8,406.1 -331.6,398.4 "/>
<text transform="matrix(1 0 0 1 -405.83 420.4771)" class="st4 st5">Message complete</text>
<polyline class="st0" points="-307.4,418.2 -267,418.2 -284.3,415.1 "/>
<rect x="101.9" y="696.5" class="st0" width="273.1" height="238.6"/>
<text transform="matrix(1 0 0 1 211.5815 718.6424)" class="st4 st5">Good job!</text>
<text transform="matrix(1 0 0 1 109.8657 864.0827)" class="st4 st10">102 points</text>
<text transform="matrix(1 0 0 1 109.8661 783.8602)" class="st4 st5">speed:</text>
<text transform="matrix(1 0 0 1 113.2325 696.4882)" class="st4 st5">ScoreCard</text>
<line class="st0" x1="102.4" y1="816.6" x2="374.9" y2="816.6"/>
<text transform="matrix(1 0 0 1 -253.177 420.4772)" class="st4 st5">Stop Timer, </text>
<text transform="matrix(1 0 0 1 -253.1769 435.0632)" class="st4 st5">calculate accuracy, </text>
<text transform="matrix(1 0 0 1 -253.1769 449.4633)" class="st4 st5">wpm, and final score</text>
<text transform="matrix(1 0 0 1 213.1204 911.3006)" class="st4 st5">play again</text>
<rect x="202.4" y="899.4" class="st0" width="72.2" height="17.6"/>
<polyline class="st0" points="-207,493.1 -207,510.8 -203.9,503.1 "/>
<text transform="matrix(1 0 0 1 -244.3282 526.7126)" class="st4 st5">user clicks “play again”</text>
<polyline class="st0" points="-208.6,529.3 -208.6,547 -205.5,539.4 "/>
<rect x="-257.8" y="562.7" class="st3" width="145.7" height="48.9"/>
<text transform="matrix(1 0 0 1 -257.8434 571.1865)" class="st4 st5">game is inactive</text>
<rect x="-250.1" y="479.1" class="st3" width="124.6" height="35.5"/>
<text transform="matrix(1 0 0 1 -250.0735 487.6534)" class="st4 st5">display ScoreCard</text>
<polyline class="st0" points="-198.4,455.6 -198.4,473.2 -195.3,465.6 "/>
<text transform="matrix(1 0 0 1 109.8657 744.7651)" class="st4 st5">difficulty: </text>
<text transform="matrix(1 0 0 1 109.866 763.8158)" class="st4 st5">accuracy:</text>
<linearGradient id="SVGID_1_" gradientUnits="userSpaceOnUse" x1="162" y1="62.85" x2="357.7" y2="62.85" gradientTransform="matrix(1 0 0 -1 0 804)">
	<stop  offset="0" style="stop-color:#D8BE28"/>
	<stop  offset="0.7186" style="stop-color:#A12F21"/>
</linearGradient>
<rect x="162" y="734.9" class="st11" width="195.7" height="12.5"/>
<linearGradient id="SVGID_2_" gradientUnits="userSpaceOnUse" x1="162" y1="43.85" x2="357.7" y2="43.85" gradientTransform="matrix(1 0 0 -1 0 804)">
	<stop  offset="0" style="stop-color:#D8BE28"/>
	<stop  offset="0.7186" style="stop-color:#993333"/>
</linearGradient>
<rect x="162" y="753.9" class="st12" width="195.7" height="12.5"/>
<linearGradient id="SVGID_3_" gradientUnits="userSpaceOnUse" x1="162" y1="24.85" x2="357.7" y2="24.85" gradientTransform="matrix(1 0 0 -1 0 804)">
	<stop  offset="0" style="stop-color:#D8BE28"/>
	<stop  offset="0.7186" style="stop-color:#A12F21"/>
</linearGradient>
<rect x="162" y="772.9" class="st13" width="195.7" height="12.5"/>
<rect x="264.9" y="734.9" class="st14" width="92.8" height="12.5"/>
<rect x="328.6" y="753.9" class="st14" width="29" height="12.5"/>
<rect x="226.2" y="772.9" class="st14" width="131.5" height="12.5"/>
<text transform="matrix(1 0 0 1 266.5832 745.0738)" class="st15 st4 st5">moderate</text>
<text transform="matrix(1 0 0 1 332.6978 764.1812)" class="st15 st4 st5">96%</text>
<text transform="matrix(1 0 0 1 229.4375 783.17)" class="st15 st4 st5">30 wpm</text>
<line class="st0" x1="102.4" y1="879.7" x2="374.9" y2="879.7"/>
<text transform="matrix(1 0 0 1 -253.177 406.0613)" class="st4 st5">game is complete</text>
<path class="st0" d="M-392.4,384.6c-141.3,0-158.3-295.3,40.2-295.3l-22.4-7.3"/>
<rect x="-346.4" y="43.9" class="st3" width="145.7" height="48.9"/>
<text transform="matrix(1 0 0 1 -346.4464 52.4341)" class="st4 st5">game is inactive</text>
<polyline class="st0" points="-305.9,56.1 -305.9,80.7 -300.7,72.9 "/>
<polyline class="st0" points="-304.8,97.3 -304.8,127.4 -301.6,119.7 "/>
<polyline class="st0" points="-303.2,144 -303.2,161.7 -300,154 "/>
<polyline class="st0" points="-253.2,89.8 -235.5,89.8 -243.2,86.6 "/>
<rect x="21.6" y="56.1" class="st1" width="111.7" height="580"/>
<text transform="matrix(1 0 0 1 36.5369 21.8735)" class="st4 st5">GameMaster</text>
<line class="st1" x1="36.7" y1="24.8" x2="36.7" y2="56.1"/>
<rect x="143.1" y="56.1" class="st1" width="111.7" height="580"/>
<rect x="263.3" y="56.1" class="st1" width="111.7" height="580"/>
<text transform="matrix(1 0 0 1 156.5369 21.8735)" class="st4 st5">Switch</text>
<line class="st1" x1="156.7" y1="24.8" x2="156.7" y2="56.1"/>
<text transform="matrix(1 0 0 1 276.5369 21.8735)" class="st4 st5">ScoreKeeper</text>
<line class="st1" x1="276.7" y1="24.8" x2="276.7" y2="56.1"/>
<rect x="383.1" y="56.1" class="st1" width="111.7" height="580"/>
<rect x="503.3" y="56.1" class="st1" width="111.7" height="580"/>
<text transform="matrix(1 0 0 1 396.5369 21.8735)" class="st4 st5">Message</text>
<line class="st1" x1="396.7" y1="24.8" x2="396.7" y2="56.1"/>
<text transform="matrix(1 0 0 1 516.5369 21.8735)" class="st4 st5">something else</text>
<line class="st1" x1="516.7" y1="24.8" x2="516.7" y2="56.1"/>
<rect x="28.4" y="69.4" class="st3" width="97" height="63.3"/>
<text transform="matrix(1 0 0 1 28.4268 77.8887)" class="st4 st5">SIGNAL INFO</text>
<text transform="matrix(1 0 0 1 28.4268 92.2887)" class="st4 st5">- last signal rec’d</text>
<text transform="matrix(1 0 0 1 28.4268 106.6887)" class="st4 st5">- signal start times</text>
<text transform="matrix(1 0 0 1 28.4268 121.0887)" class="st4 st5">- signal end times</text>
<rect x="28.4" y="159.4" class="st3" width="97" height="63.3"/>
<text transform="matrix(1 0 0 1 28.4268 167.8887)" class="st4 st5">GAME INFO</text>
<text transform="matrix(1 0 0 1 28.4268 182.2887)" class="st4 st5">- message</text>
<text transform="matrix(1 0 0 1 28.4268 196.6887)" class="st4 st5">- isComplete</text>
<text transform="matrix(1 0 0 1 615.0837 764.1808)" class="st4 st5">#CCC4BC</text>
<rect x="547.3" y="730" class="st16" width="58.4" height="58.4"/>
<text transform="matrix(1 0 0 1 615.0837 851.0247)" class="st4 st5">#A68823</text>
<rect x="547.3" y="809.9" class="st17" width="58.4" height="58.4"/>
<text transform="matrix(1 0 0 1 615.0837 684.2415)" class="st4 st5">#F5F5F5/whitesmoke</text>
<rect x="547.3" y="650.1" class="st18" width="58.4" height="58.4"/>
<text transform="matrix(1 0 0 1 478.6923 764.1808)" class="st4 st5">#A39C96</text>
<rect x="410.9" y="730" class="st19" width="58.4" height="58.4"/>
<text transform="matrix(1 0 0 1 472.6834 851.0245)" class="st4 st5">#444444</text>
<rect x="409.7" y="816.6" class="st20" width="58.4" height="58.4"/>
<text transform="matrix(1 0 0 1 478.6922 684.2415)" class="st4 st5">#E0E0E0</text>
<rect x="410.9" y="650.1" class="st21" width="58.4" height="58.4"/>
</svg>
