<?xml version="1.0" encoding="utf-8"?>
<!-- Generator: Adobe Illustrator 24.0.1, SVG Export Plug-In . SVG Version: 6.00 Build 0)  -->
<svg version="1.1" xmlns="http://www.w3.org/2000/svg" xmlns:xlink="http://www.w3.org/1999/xlink" x="0px" y="0px"
	 viewBox="0 0 1778.73 801.35" style="enable-background:new 0 0 1778.73 801.35;" xml:space="preserve">
<style type="text/css">
	.st0{fill:#B79DA4;stroke:#FFFFFF;stroke-miterlimit:10;}
	.st1{fill:none;stroke:#FFFFFF;stroke-miterlimit:10;}
	.st2{fill:#9E7A85;stroke:#FFFFFF;stroke-miterlimit:10;}
</style>
<g id="Layer_2">
	<rect x="711.4" y="0.5" class="st0" width="88.86" height="800"/>
	<rect x="622.54" y="0.5" class="st0" width="88.86" height="800"/>
	<rect x="533.68" y="0.74" class="st0" width="88.86" height="800"/>
	<rect x="444.81" y="0.74" class="st0" width="88.86" height="800"/>
	<rect x="355.95" y="0.74" class="st0" width="88.86" height="800"/>
	<rect x="267.09" y="0.5" class="st0" width="88.86" height="800"/>
	<rect x="178.23" y="0.5" class="st0" width="88.86" height="800"/>
	<rect x="89.36" y="0.74" class="st0" width="88.86" height="800"/>
	<rect x="0.5" y="0.74" class="st0" width="88.86" height="800"/>
	<rect x="1155.95" y="0.62" class="st0" width="88.86" height="800"/>
	<rect x="1067.09" y="0.62" class="st0" width="88.86" height="800"/>
	<rect x="978.23" y="0.85" class="st0" width="88.86" height="800"/>
	<rect x="889.36" y="0.85" class="st0" width="88.86" height="800"/>
	<rect x="800.5" y="0.85" class="st0" width="88.86" height="800"/>
	<rect x="1244.81" y="0.5" class="st0" width="88.86" height="800"/>
	<rect x="1689.36" y="0.62" class="st0" width="88.86" height="800"/>
	<rect x="1600.5" y="0.62" class="st0" width="88.86" height="800"/>
	<rect x="1511.64" y="0.85" class="st0" width="88.86" height="800"/>
	<rect x="1422.77" y="0.85" class="st0" width="88.86" height="800"/>
	<rect x="1333.91" y="0.85" class="st0" width="88.86" height="800"/>
	<g>
		<line class="st1" x1="5.48" y1="89.6" x2="1778.23" y2="89.6"/>
		<line class="st1" x1="5.48" y1="178.46" x2="1778.23" y2="178.46"/>
		<line class="st1" x1="5.48" y1="267.32" x2="1778.23" y2="267.32"/>
		<line class="st1" x1="0.26" y1="356.19" x2="1773.01" y2="356.19"/>
		<line class="st1" x1="0.26" y1="445.05" x2="1773.01" y2="445.05"/>
		<line class="st1" x1="0.26" y1="533.91" x2="1773.01" y2="533.91"/>
		<line class="st1" x1="5.48" y1="622.77" x2="1778.23" y2="622.77"/>
		<line class="st1" x1="5.48" y1="711.64" x2="1778.23" y2="711.64"/>
		<line class="st1" x1="5.48" y1="0.85" x2="1778.23" y2="0.85"/>
		<line class="st1" x1="0.26" y1="800.85" x2="1773.01" y2="800.85"/>
	</g>
</g>
<g id="Layer_1">
	<g>
		<rect x="115.79" y="196.48" class="st2" width="40.68" height="36.94"/>
		<rect x="115.79" y="196.48" class="st2" width="40.68" height="36.94"/>
		<rect x="115.79" y="196.48" class="st2" width="40.68" height="36.94"/>
		<rect x="115.79" y="246.3" class="st2" width="40.68" height="8.05"/>
		<rect x="115.79" y="246.3" class="st2" width="40.68" height="8.05"/>
		<rect x="115.79" y="246.3" class="st2" width="40.68" height="8.05"/>
	</g>
	<g>
		<rect x="1540.02" y="196.46" class="st2" width="40.68" height="36.94"/>
		<rect x="1540.02" y="196.46" class="st2" width="40.68" height="36.94"/>
		<rect x="1540.02" y="196.46" class="st2" width="40.68" height="36.94"/>
		<rect x="1540.02" y="246.28" class="st2" width="40.68" height="8.05"/>
		<rect x="1540.02" y="246.28" class="st2" width="40.68" height="8.05"/>
		<rect x="1540.02" y="246.28" class="st2" width="40.68" height="8.05"/>
	</g>
	<g>
		<rect x="1455.95" y="196.46" class="st2" width="40.68" height="36.94"/>
		<rect x="1455.95" y="196.46" class="st2" width="40.68" height="36.94"/>
		<rect x="1455.95" y="196.46" class="st2" width="40.68" height="36.94"/>
		<rect x="1455.95" y="246.28" class="st2" width="40.68" height="8.05"/>
		<rect x="1455.95" y="246.28" class="st2" width="40.68" height="8.05"/>
		<rect x="1455.95" y="246.28" class="st2" width="40.68" height="8.05"/>
	</g>
	<g>
		<rect x="1368.37" y="196.46" class="st2" width="40.68" height="36.94"/>
		<rect x="1368.37" y="196.46" class="st2" width="40.68" height="36.94"/>
		<rect x="1368.37" y="196.46" class="st2" width="40.68" height="36.94"/>
		<rect x="1368.37" y="246.28" class="st2" width="40.68" height="8.05"/>
		<rect x="1368.37" y="246.28" class="st2" width="40.68" height="8.05"/>
		<rect x="1368.37" y="246.28" class="st2" width="40.68" height="8.05"/>
	</g>
	<g>
		<rect x="1175.52" y="192.46" class="st2" width="40.68" height="36.94"/>
		<rect x="1175.52" y="192.46" class="st2" width="40.68" height="36.94"/>
		<rect x="1175.52" y="192.46" class="st2" width="40.68" height="36.94"/>
		<rect x="1175.52" y="242.27" class="st2" width="40.68" height="8.05"/>
		<rect x="1175.52" y="242.27" class="st2" width="40.68" height="8.05"/>
		<rect x="1175.52" y="242.27" class="st2" width="40.68" height="8.05"/>
	</g>
	<g>
		<rect x="1080.58" y="192.46" class="st2" width="40.68" height="36.94"/>
		<rect x="1080.58" y="192.46" class="st2" width="40.68" height="36.94"/>
		<rect x="1080.58" y="192.46" class="st2" width="40.68" height="36.94"/>
		<rect x="1080.58" y="242.27" class="st2" width="40.68" height="8.05"/>
		<rect x="1080.58" y="242.27" class="st2" width="40.68" height="8.05"/>
		<rect x="1080.58" y="242.27" class="st2" width="40.68" height="8.05"/>
	</g>
	<g>
		<rect x="990.94" y="192.46" class="st2" width="40.68" height="36.94"/>
		<rect x="990.94" y="192.46" class="st2" width="40.68" height="36.94"/>
		<rect x="990.94" y="192.46" class="st2" width="40.68" height="36.94"/>
		<rect x="990.94" y="242.27" class="st2" width="40.68" height="8.05"/>
		<rect x="990.94" y="242.27" class="st2" width="40.68" height="8.05"/>
		<rect x="990.94" y="242.27" class="st2" width="40.68" height="8.05"/>
	</g>
	<g>
		<rect x="908.93" y="192.46" class="st2" width="40.68" height="36.94"/>
		<rect x="908.93" y="192.46" class="st2" width="40.68" height="36.94"/>
		<rect x="908.93" y="192.46" class="st2" width="40.68" height="36.94"/>
		<rect x="908.93" y="242.27" class="st2" width="40.68" height="8.05"/>
		<rect x="908.93" y="242.27" class="st2" width="40.68" height="8.05"/>
		<rect x="908.93" y="242.27" class="st2" width="40.68" height="8.05"/>
	</g>
	<g>
		<rect x="820.07" y="192.46" class="st2" width="40.68" height="36.94"/>
		<rect x="820.07" y="192.46" class="st2" width="40.68" height="36.94"/>
		<rect x="820.07" y="192.46" class="st2" width="40.68" height="36.94"/>
		<rect x="820.07" y="242.27" class="st2" width="40.68" height="8.05"/>
		<rect x="820.07" y="242.27" class="st2" width="40.68" height="8.05"/>
		<rect x="820.07" y="242.27" class="st2" width="40.68" height="8.05"/>
	</g>
	<g>
		<rect x="648.96" y="196.48" class="st2" width="40.68" height="36.94"/>
		<rect x="648.96" y="196.48" class="st2" width="40.68" height="36.94"/>
		<rect x="648.96" y="196.48" class="st2" width="40.68" height="36.94"/>
		<rect x="648.96" y="246.3" class="st2" width="40.68" height="8.05"/>
		<rect x="648.96" y="246.3" class="st2" width="40.68" height="8.05"/>
		<rect x="648.96" y="246.3" class="st2" width="40.68" height="8.05"/>
	</g>
	<g>
		<rect x="560.1" y="196.48" class="st2" width="40.68" height="36.94"/>
		<rect x="560.1" y="196.48" class="st2" width="40.68" height="36.94"/>
		<rect x="560.1" y="196.48" class="st2" width="40.68" height="36.94"/>
		<rect x="560.1" y="246.3" class="st2" width="40.68" height="8.05"/>
		<rect x="560.1" y="246.3" class="st2" width="40.68" height="8.05"/>
		<rect x="560.1" y="246.3" class="st2" width="40.68" height="8.05"/>
	</g>
	<g>
		<rect x="471.24" y="196.48" class="st2" width="40.68" height="36.94"/>
		<rect x="471.24" y="196.48" class="st2" width="40.68" height="36.94"/>
		<rect x="471.24" y="196.48" class="st2" width="40.68" height="36.94"/>
		<rect x="471.24" y="246.3" class="st2" width="40.68" height="8.05"/>
		<rect x="471.24" y="246.3" class="st2" width="40.68" height="8.05"/>
		<rect x="471.24" y="246.3" class="st2" width="40.68" height="8.05"/>
	</g>
	<g>
		<rect x="382.37" y="196.48" class="st2" width="40.68" height="36.94"/>
		<rect x="382.37" y="196.48" class="st2" width="40.68" height="36.94"/>
		<rect x="382.37" y="196.48" class="st2" width="40.68" height="36.94"/>
		<rect x="382.37" y="246.3" class="st2" width="40.68" height="8.05"/>
		<rect x="382.37" y="246.3" class="st2" width="40.68" height="8.05"/>
		<rect x="382.37" y="246.3" class="st2" width="40.68" height="8.05"/>
	</g>
	<g>
		<rect x="293.51" y="196.48" class="st2" width="40.68" height="36.94"/>
		<rect x="293.51" y="196.48" class="st2" width="40.68" height="36.94"/>
		<rect x="293.51" y="196.48" class="st2" width="40.68" height="36.94"/>
		<rect x="293.51" y="246.3" class="st2" width="40.68" height="8.05"/>
		<rect x="293.51" y="246.3" class="st2" width="40.68" height="8.05"/>
		<rect x="293.51" y="246.3" class="st2" width="40.68" height="8.05"/>
	</g>
	<g>
		<rect x="204.65" y="196.48" class="st2" width="40.68" height="36.94"/>
		<rect x="204.65" y="196.48" class="st2" width="40.68" height="36.94"/>
		<rect x="204.65" y="196.48" class="st2" width="40.68" height="36.94"/>
		<rect x="204.65" y="246.3" class="st2" width="40.68" height="8.05"/>
		<rect x="204.65" y="246.3" class="st2" width="40.68" height="8.05"/>
		<rect x="204.65" y="246.3" class="st2" width="40.68" height="8.05"/>
	</g>
	<g>
		<rect x="204.65" y="373.93" class="st2" width="40.68" height="36.94"/>
		<rect x="204.65" y="373.93" class="st2" width="40.68" height="36.94"/>
		<rect x="204.65" y="373.93" class="st2" width="40.68" height="36.94"/>
		<rect x="204.65" y="423.75" class="st2" width="40.68" height="8.05"/>
		<rect x="204.65" y="423.75" class="st2" width="40.68" height="8.05"/>
		<rect x="204.65" y="423.75" class="st2" width="40.68" height="8.05"/>
	</g>
	<g>
		<rect x="737.82" y="373.93" class="st2" width="40.68" height="36.94"/>
		<rect x="737.82" y="373.93" class="st2" width="40.68" height="36.94"/>
		<rect x="737.82" y="373.93" class="st2" width="40.68" height="36.94"/>
		<rect x="737.82" y="423.75" class="st2" width="40.68" height="8.05"/>
		<rect x="737.82" y="423.75" class="st2" width="40.68" height="8.05"/>
		<rect x="737.82" y="423.75" class="st2" width="40.68" height="8.05"/>
	</g>
	<g>
		<rect x="648.96" y="373.93" class="st2" width="40.68" height="36.94"/>
		<rect x="648.96" y="373.93" class="st2" width="40.68" height="36.94"/>
		<rect x="648.96" y="373.93" class="st2" width="40.68" height="36.94"/>
		<rect x="648.96" y="423.75" class="st2" width="40.68" height="8.05"/>
		<rect x="648.96" y="423.75" class="st2" width="40.68" height="8.05"/>
		<rect x="648.96" y="423.75" class="st2" width="40.68" height="8.05"/>
	</g>
	<g>
		<rect x="560.1" y="373.93" class="st2" width="40.68" height="36.94"/>
		<rect x="560.1" y="373.93" class="st2" width="40.68" height="36.94"/>
		<rect x="560.1" y="373.93" class="st2" width="40.68" height="36.94"/>
		<rect x="560.1" y="423.75" class="st2" width="40.68" height="8.05"/>
		<rect x="560.1" y="423.75" class="st2" width="40.68" height="8.05"/>
		<rect x="560.1" y="423.75" class="st2" width="40.68" height="8.05"/>
	</g>
	<g>
		<rect x="471.24" y="373.93" class="st2" width="40.68" height="36.94"/>
		<rect x="471.24" y="373.93" class="st2" width="40.68" height="36.94"/>
		<rect x="471.24" y="373.93" class="st2" width="40.68" height="36.94"/>
		<rect x="471.24" y="423.75" class="st2" width="40.68" height="8.05"/>
		<rect x="471.24" y="423.75" class="st2" width="40.68" height="8.05"/>
		<rect x="471.24" y="423.75" class="st2" width="40.68" height="8.05"/>
	</g>
	<g>
		<rect x="382.37" y="373.93" class="st2" width="40.68" height="36.94"/>
		<rect x="382.37" y="373.93" class="st2" width="40.68" height="36.94"/>
		<rect x="382.37" y="373.93" class="st2" width="40.68" height="36.94"/>
		<rect x="382.37" y="423.75" class="st2" width="40.68" height="8.05"/>
		<rect x="382.37" y="423.75" class="st2" width="40.68" height="8.05"/>
		<rect x="382.37" y="423.75" class="st2" width="40.68" height="8.05"/>
	</g>
	<g>
		<rect x="293.51" y="373.93" class="st2" width="40.68" height="36.94"/>
		<rect x="293.51" y="373.93" class="st2" width="40.68" height="36.94"/>
		<rect x="293.51" y="373.93" class="st2" width="40.68" height="36.94"/>
		<rect x="293.51" y="423.75" class="st2" width="40.68" height="8.05"/>
		<rect x="293.51" y="423.75" class="st2" width="40.68" height="8.05"/>
		<rect x="293.51" y="423.75" class="st2" width="40.68" height="8.05"/>
	</g>
	<g>
		<rect x="1264.38" y="373.93" class="st2" width="40.68" height="36.94"/>
		<rect x="1264.38" y="373.93" class="st2" width="40.68" height="36.94"/>
		<rect x="1264.38" y="373.93" class="st2" width="40.68" height="36.94"/>
		<rect x="1264.38" y="423.75" class="st2" width="40.68" height="8.05"/>
		<rect x="1264.38" y="423.75" class="st2" width="40.68" height="8.05"/>
		<rect x="1264.38" y="423.75" class="st2" width="40.68" height="8.05"/>
	</g>
	<g>
		<rect x="1175.52" y="373.93" class="st2" width="40.68" height="36.94"/>
		<rect x="1175.52" y="373.93" class="st2" width="40.68" height="36.94"/>
		<rect x="1175.52" y="373.93" class="st2" width="40.68" height="36.94"/>
		<rect x="1175.52" y="423.75" class="st2" width="40.68" height="8.05"/>
		<rect x="1175.52" y="423.75" class="st2" width="40.68" height="8.05"/>
		<rect x="1175.52" y="423.75" class="st2" width="40.68" height="8.05"/>
	</g>
	<g>
		<rect x="1086.66" y="373.93" class="st2" width="40.68" height="36.94"/>
		<rect x="1086.66" y="373.93" class="st2" width="40.68" height="36.94"/>
		<rect x="1086.66" y="373.93" class="st2" width="40.68" height="36.94"/>
		<rect x="1086.66" y="423.75" class="st2" width="40.68" height="8.05"/>
		<rect x="1086.66" y="423.75" class="st2" width="40.68" height="8.05"/>
		<rect x="1086.66" y="423.75" class="st2" width="40.68" height="8.05"/>
	</g>
	<g>
		<rect x="997.79" y="373.93" class="st2" width="40.68" height="36.94"/>
		<rect x="997.79" y="373.93" class="st2" width="40.68" height="36.94"/>
		<rect x="997.79" y="373.93" class="st2" width="40.68" height="36.94"/>
		<rect x="997.79" y="423.75" class="st2" width="40.68" height="8.05"/>
		<rect x="997.79" y="423.75" class="st2" width="40.68" height="8.05"/>
		<rect x="997.79" y="423.75" class="st2" width="40.68" height="8.05"/>
	</g>
	<g>
		<rect x="908.93" y="373.93" class="st2" width="40.68" height="36.94"/>
		<rect x="908.93" y="373.93" class="st2" width="40.68" height="36.94"/>
		<rect x="908.93" y="373.93" class="st2" width="40.68" height="36.94"/>
		<rect x="908.93" y="423.75" class="st2" width="40.68" height="8.05"/>
		<rect x="908.93" y="423.75" class="st2" width="40.68" height="8.05"/>
		<rect x="908.93" y="423.75" class="st2" width="40.68" height="8.05"/>
	</g>
	<g>
		<rect x="820.07" y="373.93" class="st2" width="40.68" height="36.94"/>
		<rect x="820.07" y="373.93" class="st2" width="40.68" height="36.94"/>
		<rect x="820.07" y="373.93" class="st2" width="40.68" height="36.94"/>
		<rect x="820.07" y="423.75" class="st2" width="40.68" height="8.05"/>
		<rect x="820.07" y="423.75" class="st2" width="40.68" height="8.05"/>
		<rect x="820.07" y="423.75" class="st2" width="40.68" height="8.05"/>
	</g>
	<g>
		<rect x="1449.2" y="373.93" class="st2" width="40.68" height="36.94"/>
		<rect x="1449.2" y="373.93" class="st2" width="40.68" height="36.94"/>
		<rect x="1449.2" y="373.93" class="st2" width="40.68" height="36.94"/>
		<rect x="1449.2" y="423.75" class="st2" width="40.68" height="8.05"/>
		<rect x="1449.2" y="423.75" class="st2" width="40.68" height="8.05"/>
		<rect x="1449.2" y="423.75" class="st2" width="40.68" height="8.05"/>
	</g>
	<g>
		<rect x="1360.33" y="373.93" class="st2" width="40.68" height="36.94"/>
		<rect x="1360.33" y="373.93" class="st2" width="40.68" height="36.94"/>
		<rect x="1360.33" y="373.93" class="st2" width="40.68" height="36.94"/>
		<rect x="1360.33" y="423.75" class="st2" width="40.68" height="8.05"/>
		<rect x="1360.33" y="423.75" class="st2" width="40.68" height="8.05"/>
		<rect x="1360.33" y="423.75" class="st2" width="40.68" height="8.05"/>
	</g>
	<g>
		<rect x="474.78" y="551.38" class="st2" width="40.68" height="36.94"/>
		<rect x="474.78" y="551.38" class="st2" width="40.68" height="36.94"/>
		<rect x="474.78" y="551.38" class="st2" width="40.68" height="36.94"/>
		<rect x="474.78" y="601.2" class="st2" width="40.68" height="8.05"/>
		<rect x="474.78" y="601.2" class="st2" width="40.68" height="8.05"/>
		<rect x="474.78" y="601.2" class="st2" width="40.68" height="8.05"/>
	</g>
	<g>
		<rect x="1007.96" y="551.38" class="st2" width="40.68" height="36.94"/>
		<rect x="1007.96" y="551.38" class="st2" width="40.68" height="36.94"/>
		<rect x="1007.96" y="551.38" class="st2" width="40.68" height="36.94"/>
		<rect x="1007.96" y="601.2" class="st2" width="40.68" height="8.05"/>
		<rect x="1007.96" y="601.2" class="st2" width="40.68" height="8.05"/>
		<rect x="1007.96" y="601.2" class="st2" width="40.68" height="8.05"/>
	</g>
	<g>
		<rect x="919.09" y="551.38" class="st2" width="40.68" height="36.94"/>
		<rect x="919.09" y="551.38" class="st2" width="40.68" height="36.94"/>
		<rect x="919.09" y="551.38" class="st2" width="40.68" height="36.94"/>
		<rect x="919.09" y="601.2" class="st2" width="40.68" height="8.05"/>
		<rect x="919.09" y="601.2" class="st2" width="40.68" height="8.05"/>
		<rect x="919.09" y="601.2" class="st2" width="40.68" height="8.05"/>
	</g>
	<g>
		<rect x="830.23" y="551.38" class="st2" width="40.68" height="36.94"/>
		<rect x="830.23" y="551.38" class="st2" width="40.68" height="36.94"/>
		<rect x="830.23" y="551.38" class="st2" width="40.68" height="36.94"/>
		<rect x="830.23" y="601.2" class="st2" width="40.68" height="8.05"/>
		<rect x="830.23" y="601.2" class="st2" width="40.68" height="8.05"/>
		<rect x="830.23" y="601.2" class="st2" width="40.68" height="8.05"/>
	</g>
	<g>
		<rect x="741.37" y="551.38" class="st2" width="40.68" height="36.94"/>
		<rect x="741.37" y="551.38" class="st2" width="40.68" height="36.94"/>
		<rect x="741.37" y="551.38" class="st2" width="40.68" height="36.94"/>
		<rect x="741.37" y="601.2" class="st2" width="40.68" height="8.05"/>
		<rect x="741.37" y="601.2" class="st2" width="40.68" height="8.05"/>
		<rect x="741.37" y="601.2" class="st2" width="40.68" height="8.05"/>
	</g>
	<g>
		<rect x="652.51" y="551.38" class="st2" width="40.68" height="36.94"/>
		<rect x="652.51" y="551.38" class="st2" width="40.68" height="36.94"/>
		<rect x="652.51" y="551.38" class="st2" width="40.68" height="36.94"/>
		<rect x="652.51" y="601.2" class="st2" width="40.68" height="8.05"/>
		<rect x="652.51" y="601.2" class="st2" width="40.68" height="8.05"/>
		<rect x="652.51" y="601.2" class="st2" width="40.68" height="8.05"/>
	</g>
	<g>
		<rect x="563.64" y="551.38" class="st2" width="40.68" height="36.94"/>
		<rect x="563.64" y="551.38" class="st2" width="40.68" height="36.94"/>
		<rect x="563.64" y="551.38" class="st2" width="40.68" height="36.94"/>
		<rect x="563.64" y="601.2" class="st2" width="40.68" height="8.05"/>
		<rect x="563.64" y="601.2" class="st2" width="40.68" height="8.05"/>
		<rect x="563.64" y="601.2" class="st2" width="40.68" height="8.05"/>
	</g>
	<g>
		<rect x="1267.93" y="551.38" class="st2" width="40.68" height="36.94"/>
		<rect x="1267.93" y="551.38" class="st2" width="40.68" height="36.94"/>
		<rect x="1267.93" y="551.38" class="st2" width="40.68" height="36.94"/>
		<rect x="1267.93" y="601.2" class="st2" width="40.68" height="8.05"/>
		<rect x="1267.93" y="601.2" class="st2" width="40.68" height="8.05"/>
		<rect x="1267.93" y="601.2" class="st2" width="40.68" height="8.05"/>
	</g>
	<g>
		<rect x="1179.06" y="551.38" class="st2" width="40.68" height="36.94"/>
		<rect x="1179.06" y="551.38" class="st2" width="40.68" height="36.94"/>
		<rect x="1179.06" y="551.38" class="st2" width="40.68" height="36.94"/>
		<rect x="1179.06" y="601.2" class="st2" width="40.68" height="8.05"/>
		<rect x="1179.06" y="601.2" class="st2" width="40.68" height="8.05"/>
		<rect x="1179.06" y="601.2" class="st2" width="40.68" height="8.05"/>
	</g>
	<g>
		<rect x="1090.2" y="551.38" class="st2" width="40.68" height="36.94"/>
		<rect x="1090.2" y="551.38" class="st2" width="40.68" height="36.94"/>
		<rect x="1090.2" y="551.38" class="st2" width="40.68" height="36.94"/>
		<rect x="1090.2" y="601.2" class="st2" width="40.68" height="8.05"/>
		<rect x="1090.2" y="601.2" class="st2" width="40.68" height="8.05"/>
		<rect x="1090.2" y="601.2" class="st2" width="40.68" height="8.05"/>
	</g>
</g>
</svg>
