<?xml version="1.0" encoding="utf-8"?>
<!-- Generator: Adobe Illustrator 24.0.1, SVG Export Plug-In . SVG Version: 6.00 Build 0)  -->
<svg version="1.1" xmlns="http://www.w3.org/2000/svg" xmlns:xlink="http://www.w3.org/1999/xlink" x="0px" y="0px"
	 viewBox="0 0 1778.73 801.35" style="enable-background:new 0 0 1778.73 801.35;" xml:space="preserve">
<style type="text/css">
	.st0{fill:#B79DA4;stroke:#FFFFFF;stroke-miterlimit:10;}
	.st1{fill:none;stroke:#FFFFFF;stroke-miterlimit:10;}
	.st2{fill:#9E7A85;stroke:#FFFFFF;stroke-miterlimit:10;}
</style>
<g id="Layer_2">
	<rect x="711.4" y="0.5" class="st0" width="88.86" height="800"/>
	<rect x="622.54" y="0.5" class="st0" width="88.86" height="800"/>
	<rect x="533.68" y="0.74" class="st0" width="88.86" height="800"/>
	<rect x="444.81" y="0.74" class="st0" width="88.86" height="800"/>
	<rect x="355.95" y="0.74" class="st0" width="88.86" height="800"/>
	<rect x="267.09" y="0.5" class="st0" width="88.86" height="800"/>
	<rect x="178.23" y="0.5" class="st0" width="88.86" height="800"/>
	<rect x="89.36" y="0.74" class="st0" width="88.86" height="800"/>
	<rect x="0.5" y="0.74" class="st0" width="88.86" height="800"/>
	<rect x="1155.95" y="0.62" class="st0" width="88.86" height="800"/>
	<rect x="1067.09" y="0.62" class="st0" width="88.86" height="800"/>
	<rect x="978.23" y="0.85" class="st0" width="88.86" height="800"/>
	<rect x="889.36" y="0.85" class="st0" width="88.86" height="800"/>
	<rect x="800.5" y="0.85" class="st0" width="88.86" height="800"/>
	<rect x="1244.81" y="0.5" class="st0" width="88.86" height="800"/>
	<rect x="1689.36" y="0.62" class="st0" width="88.86" height="800"/>
	<rect x="1600.5" y="0.62" class="st0" width="88.86" height="800"/>
	<rect x="1511.64" y="0.85" class="st0" width="88.86" height="800"/>
	<rect x="1422.77" y="0.85" class="st0" width="88.86" height="800"/>
	<rect x="1333.91" y="0.85" class="st0" width="88.86" height="800"/>
	<g>
		<line class="st1" x1="5.48" y1="89.6" x2="1778.23" y2="89.6"/>
		<line class="st1" x1="5.48" y1="178.46" x2="1778.23" y2="178.46"/>
		<line class="st1" x1="5.48" y1="267.32" x2="1778.23" y2="267.32"/>
		<line class="st1" x1="0.26" y1="356.19" x2="1773.01" y2="356.19"/>
		<line class="st1" x1="0.26" y1="445.05" x2="1773.01" y2="445.05"/>
		<line class="st1" x1="0.26" y1="533.91" x2="1773.01" y2="533.91"/>
		<line class="st1" x1="5.48" y1="622.77" x2="1778.23" y2="622.77"/>
		<line class="st1" x1="5.48" y1="711.64" x2="1778.23" y2="711.64"/>
		<line class="st1" x1="5.48" y1="0.85" x2="1778.23" y2="0.85"/>
		<line class="st1" x1="0.26" y1="800.85" x2="1773.01" y2="800.85"/>
	</g>
</g>
<g id="Layer_1">
	<g>
		<rect x="113.46" y="196.48" class="st2" width="40.68" height="36.94"/>
		<rect x="113.46" y="196.48" class="st2" width="40.68" height="36.94"/>
		<rect x="113.46" y="196.48" class="st2" width="40.68" height="36.94"/>
		<rect x="113.46" y="246.3" class="st2" width="40.68" height="8.05"/>
		<rect x="113.46" y="246.3" class="st2" width="40.68" height="8.05"/>
		<rect x="113.46" y="246.3" class="st2" width="40.68" height="8.05"/>
	</g>
	<g>
		<rect x="1537.69" y="196.46" class="st2" width="40.68" height="36.94"/>
		<rect x="1537.69" y="196.46" class="st2" width="40.68" height="36.94"/>
		<rect x="1537.69" y="196.46" class="st2" width="40.68" height="36.94"/>
		<rect x="1537.69" y="246.28" class="st2" width="40.68" height="8.05"/>
		<rect x="1537.69" y="246.28" class="st2" width="40.68" height="8.05"/>
		<rect x="1537.69" y="246.28" class="st2" width="40.68" height="8.05"/>
	</g>
	<g>
		<rect x="1453.62" y="196.46" class="st2" width="40.68" height="36.94"/>
		<rect x="1453.62" y="196.46" class="st2" width="40.68" height="36.94"/>
		<rect x="1453.62" y="196.46" class="st2" width="40.68" height="36.94"/>
		<rect x="1453.62" y="246.28" class="st2" width="40.68" height="8.05"/>
		<rect x="1453.62" y="246.28" class="st2" width="40.68" height="8.05"/>
		<rect x="1453.62" y="246.28" class="st2" width="40.68" height="8.05"/>
	</g>
	<g>
		<rect x="1366.05" y="196.46" class="st2" width="40.68" height="36.94"/>
		<rect x="1366.05" y="196.46" class="st2" width="40.68" height="36.94"/>
		<rect x="1366.05" y="196.46" class="st2" width="40.68" height="36.94"/>
		<rect x="1366.05" y="246.28" class="st2" width="40.68" height="8.05"/>
		<rect x="1366.05" y="246.28" class="st2" width="40.68" height="8.05"/>
		<rect x="1366.05" y="246.28" class="st2" width="40.68" height="8.05"/>
	</g>
	<g>
		<rect x="1173.19" y="192.46" class="st2" width="40.68" height="36.94"/>
		<rect x="1173.19" y="192.46" class="st2" width="40.68" height="36.94"/>
		<rect x="1173.19" y="192.46" class="st2" width="40.68" height="36.94"/>
		<rect x="1173.19" y="242.27" class="st2" width="40.68" height="8.05"/>
		<rect x="1173.19" y="242.27" class="st2" width="40.68" height="8.05"/>
		<rect x="1173.19" y="242.27" class="st2" width="40.68" height="8.05"/>
	</g>
	<g>
		<rect x="1078.25" y="192.46" class="st2" width="40.68" height="36.94"/>
		<rect x="1078.25" y="192.46" class="st2" width="40.68" height="36.94"/>
		<rect x="1078.25" y="192.46" class="st2" width="40.68" height="36.94"/>
		<rect x="1078.25" y="242.27" class="st2" width="40.68" height="8.05"/>
		<rect x="1078.25" y="242.27" class="st2" width="40.68" height="8.05"/>
		<rect x="1078.25" y="242.27" class="st2" width="40.68" height="8.05"/>
	</g>
	<g>
		<rect x="988.61" y="192.46" class="st2" width="40.68" height="36.94"/>
		<rect x="988.61" y="192.46" class="st2" width="40.68" height="36.94"/>
		<rect x="988.61" y="192.46" class="st2" width="40.68" height="36.94"/>
		<rect x="988.61" y="242.27" class="st2" width="40.68" height="8.05"/>
		<rect x="988.61" y="242.27" class="st2" width="40.68" height="8.05"/>
		<rect x="988.61" y="242.27" class="st2" width="40.68" height="8.05"/>
	</g>
	<g>
		<rect x="906.6" y="192.46" class="st2" width="40.68" height="36.94"/>
		<rect x="906.6" y="192.46" class="st2" width="40.68" height="36.94"/>
		<rect x="906.6" y="192.46" class="st2" width="40.68" height="36.94"/>
		<rect x="906.6" y="242.27" class="st2" width="40.68" height="8.05"/>
		<rect x="906.6" y="242.27" class="st2" width="40.68" height="8.05"/>
		<rect x="906.6" y="242.27" class="st2" width="40.68" height="8.05"/>
	</g>
	<g>
		<rect x="817.74" y="192.46" class="st2" width="40.68" height="36.94"/>
		<rect x="817.74" y="192.46" class="st2" width="40.68" height="36.94"/>
		<rect x="817.74" y="192.46" class="st2" width="40.68" height="36.94"/>
		<rect x="817.74" y="242.27" class="st2" width="40.68" height="8.05"/>
		<rect x="817.74" y="242.27" class="st2" width="40.68" height="8.05"/>
		<rect x="817.74" y="242.27" class="st2" width="40.68" height="8.05"/>
	</g>
	<g>
		<rect x="646.63" y="196.48" class="st2" width="40.68" height="36.94"/>
		<rect x="646.63" y="196.48" class="st2" width="40.68" height="36.94"/>
		<rect x="646.63" y="196.48" class="st2" width="40.68" height="36.94"/>
		<rect x="646.63" y="246.3" class="st2" width="40.68" height="8.05"/>
		<rect x="646.63" y="246.3" class="st2" width="40.68" height="8.05"/>
		<rect x="646.63" y="246.3" class="st2" width="40.68" height="8.05"/>
	</g>
	<g>
		<rect x="557.77" y="196.48" class="st2" width="40.68" height="36.94"/>
		<rect x="557.77" y="196.48" class="st2" width="40.68" height="36.94"/>
		<rect x="557.77" y="196.48" class="st2" width="40.68" height="36.94"/>
		<rect x="557.77" y="246.3" class="st2" width="40.68" height="8.05"/>
		<rect x="557.77" y="246.3" class="st2" width="40.68" height="8.05"/>
		<rect x="557.77" y="246.3" class="st2" width="40.68" height="8.05"/>
	</g>
	<g>
		<rect x="468.91" y="196.48" class="st2" width="40.68" height="36.94"/>
		<rect x="468.91" y="196.48" class="st2" width="40.68" height="36.94"/>
		<rect x="468.91" y="196.48" class="st2" width="40.68" height="36.94"/>
		<rect x="468.91" y="246.3" class="st2" width="40.68" height="8.05"/>
		<rect x="468.91" y="246.3" class="st2" width="40.68" height="8.05"/>
		<rect x="468.91" y="246.3" class="st2" width="40.68" height="8.05"/>
	</g>
	<g>
		<rect x="380.04" y="196.48" class="st2" width="40.68" height="36.94"/>
		<rect x="380.04" y="196.48" class="st2" width="40.68" height="36.94"/>
		<rect x="380.04" y="196.48" class="st2" width="40.68" height="36.94"/>
		<rect x="380.04" y="246.3" class="st2" width="40.68" height="8.05"/>
		<rect x="380.04" y="246.3" class="st2" width="40.68" height="8.05"/>
		<rect x="380.04" y="246.3" class="st2" width="40.68" height="8.05"/>
	</g>
	<g>
		<rect x="291.18" y="196.48" class="st2" width="40.68" height="36.94"/>
		<rect x="291.18" y="196.48" class="st2" width="40.68" height="36.94"/>
		<rect x="291.18" y="196.48" class="st2" width="40.68" height="36.94"/>
		<rect x="291.18" y="246.3" class="st2" width="40.68" height="8.05"/>
		<rect x="291.18" y="246.3" class="st2" width="40.68" height="8.05"/>
		<rect x="291.18" y="246.3" class="st2" width="40.68" height="8.05"/>
	</g>
	<g>
		<rect x="202.32" y="196.48" class="st2" width="40.68" height="36.94"/>
		<rect x="202.32" y="196.48" class="st2" width="40.68" height="36.94"/>
		<rect x="202.32" y="196.48" class="st2" width="40.68" height="36.94"/>
		<rect x="202.32" y="246.3" class="st2" width="40.68" height="8.05"/>
		<rect x="202.32" y="246.3" class="st2" width="40.68" height="8.05"/>
		<rect x="202.32" y="246.3" class="st2" width="40.68" height="8.05"/>
	</g>
	<g>
		<rect x="202.32" y="373.93" class="st2" width="40.68" height="36.94"/>
		<rect x="202.32" y="373.93" class="st2" width="40.68" height="36.94"/>
		<rect x="202.32" y="373.93" class="st2" width="40.68" height="36.94"/>
		<rect x="202.32" y="423.75" class="st2" width="40.68" height="8.05"/>
		<rect x="202.32" y="423.75" class="st2" width="40.68" height="8.05"/>
		<rect x="202.32" y="423.75" class="st2" width="40.68" height="8.05"/>
	</g>
	<g>
		<rect x="735.5" y="373.93" class="st2" width="40.68" height="36.94"/>
		<rect x="735.5" y="373.93" class="st2" width="40.68" height="36.94"/>
		<rect x="735.5" y="373.93" class="st2" width="40.68" height="36.94"/>
		<rect x="735.5" y="423.75" class="st2" width="40.68" height="8.05"/>
		<rect x="735.5" y="423.75" class="st2" width="40.68" height="8.05"/>
		<rect x="735.5" y="423.75" class="st2" width="40.68" height="8.05"/>
	</g>
	<g>
		<rect x="646.63" y="373.93" class="st2" width="40.68" height="36.94"/>
		<rect x="646.63" y="373.93" class="st2" width="40.68" height="36.94"/>
		<rect x="646.63" y="373.93" class="st2" width="40.68" height="36.94"/>
		<rect x="646.63" y="423.75" class="st2" width="40.68" height="8.05"/>
		<rect x="646.63" y="423.75" class="st2" width="40.68" height="8.05"/>
		<rect x="646.63" y="423.75" class="st2" width="40.68" height="8.05"/>
	</g>
	<g>
		<rect x="557.77" y="373.93" class="st2" width="40.68" height="36.94"/>
		<rect x="557.77" y="373.93" class="st2" width="40.68" height="36.94"/>
		<rect x="557.77" y="373.93" class="st2" width="40.68" height="36.94"/>
		<rect x="557.77" y="423.75" class="st2" width="40.68" height="8.05"/>
		<rect x="557.77" y="423.75" class="st2" width="40.68" height="8.05"/>
		<rect x="557.77" y="423.75" class="st2" width="40.68" height="8.05"/>
	</g>
	<g>
		<rect x="468.91" y="373.93" class="st2" width="40.68" height="36.94"/>
		<rect x="468.91" y="373.93" class="st2" width="40.68" height="36.94"/>
		<rect x="468.91" y="373.93" class="st2" width="40.68" height="36.94"/>
		<rect x="468.91" y="423.75" class="st2" width="40.68" height="8.05"/>
		<rect x="468.91" y="423.75" class="st2" width="40.68" height="8.05"/>
		<rect x="468.91" y="423.75" class="st2" width="40.68" height="8.05"/>
	</g>
	<g>
		<rect x="380.04" y="373.93" class="st2" width="40.68" height="36.94"/>
		<rect x="380.04" y="373.93" class="st2" width="40.68" height="36.94"/>
		<rect x="380.04" y="373.93" class="st2" width="40.68" height="36.94"/>
		<rect x="380.04" y="423.75" class="st2" width="40.68" height="8.05"/>
		<rect x="380.04" y="423.75" class="st2" width="40.68" height="8.05"/>
		<rect x="380.04" y="423.75" class="st2" width="40.68" height="8.05"/>
	</g>
	<g>
		<rect x="291.18" y="373.93" class="st2" width="40.68" height="36.94"/>
		<rect x="291.18" y="373.93" class="st2" width="40.68" height="36.94"/>
		<rect x="291.18" y="373.93" class="st2" width="40.68" height="36.94"/>
		<rect x="291.18" y="423.75" class="st2" width="40.68" height="8.05"/>
		<rect x="291.18" y="423.75" class="st2" width="40.68" height="8.05"/>
		<rect x="291.18" y="423.75" class="st2" width="40.68" height="8.05"/>
	</g>
	<g>
		<rect x="1262.05" y="373.93" class="st2" width="40.68" height="36.94"/>
		<rect x="1262.05" y="373.93" class="st2" width="40.68" height="36.94"/>
		<rect x="1262.05" y="373.93" class="st2" width="40.68" height="36.94"/>
		<rect x="1262.05" y="423.75" class="st2" width="40.68" height="8.05"/>
		<rect x="1262.05" y="423.75" class="st2" width="40.68" height="8.05"/>
		<rect x="1262.05" y="423.75" class="st2" width="40.68" height="8.05"/>
	</g>
	<g>
		<rect x="1173.19" y="373.93" class="st2" width="40.68" height="36.94"/>
		<rect x="1173.19" y="373.93" class="st2" width="40.68" height="36.94"/>
		<rect x="1173.19" y="373.93" class="st2" width="40.68" height="36.94"/>
		<rect x="1173.19" y="423.75" class="st2" width="40.68" height="8.05"/>
		<rect x="1173.19" y="423.75" class="st2" width="40.68" height="8.05"/>
		<rect x="1173.19" y="423.75" class="st2" width="40.68" height="8.05"/>
	</g>
	<g>
		<rect x="1084.33" y="373.93" class="st2" width="40.68" height="36.94"/>
		<rect x="1084.33" y="373.93" class="st2" width="40.68" height="36.94"/>
		<rect x="1084.33" y="373.93" class="st2" width="40.68" height="36.94"/>
		<rect x="1084.33" y="423.75" class="st2" width="40.68" height="8.05"/>
		<rect x="1084.33" y="423.75" class="st2" width="40.68" height="8.05"/>
		<rect x="1084.33" y="423.75" class="st2" width="40.68" height="8.05"/>
	</g>
	<g>
		<rect x="995.47" y="373.93" class="st2" width="40.68" height="36.94"/>
		<rect x="995.47" y="373.93" class="st2" width="40.68" height="36.94"/>
		<rect x="995.47" y="373.93" class="st2" width="40.68" height="36.94"/>
		<rect x="995.47" y="423.75" class="st2" width="40.68" height="8.05"/>
		<rect x="995.47" y="423.75" class="st2" width="40.68" height="8.05"/>
		<rect x="995.47" y="423.75" class="st2" width="40.68" height="8.05"/>
	</g>
	<g>
		<rect x="906.6" y="373.93" class="st2" width="40.68" height="36.94"/>
		<rect x="906.6" y="373.93" class="st2" width="40.68" height="36.94"/>
		<rect x="906.6" y="373.93" class="st2" width="40.68" height="36.94"/>
		<rect x="906.6" y="423.75" class="st2" width="40.68" height="8.05"/>
		<rect x="906.6" y="423.75" class="st2" width="40.68" height="8.05"/>
		<rect x="906.6" y="423.75" class="st2" width="40.68" height="8.05"/>
	</g>
	<g>
		<rect x="817.74" y="373.93" class="st2" width="40.68" height="36.94"/>
		<rect x="817.74" y="373.93" class="st2" width="40.68" height="36.94"/>
		<rect x="817.74" y="373.93" class="st2" width="40.68" height="36.94"/>
		<rect x="817.74" y="423.75" class="st2" width="40.68" height="8.05"/>
		<rect x="817.74" y="423.75" class="st2" width="40.68" height="8.05"/>
		<rect x="817.74" y="423.75" class="st2" width="40.68" height="8.05"/>
	</g>
	<g>
		<rect x="1446.87" y="373.93" class="st2" width="40.68" height="36.94"/>
		<rect x="1446.87" y="373.93" class="st2" width="40.68" height="36.94"/>
		<rect x="1446.87" y="373.93" class="st2" width="40.68" height="36.94"/>
		<rect x="1446.87" y="423.75" class="st2" width="40.68" height="8.05"/>
		<rect x="1446.87" y="423.75" class="st2" width="40.68" height="8.05"/>
		<rect x="1446.87" y="423.75" class="st2" width="40.68" height="8.05"/>
	</g>
	<g>
		<rect x="1358.01" y="373.93" class="st2" width="40.68" height="36.94"/>
		<rect x="1358.01" y="373.93" class="st2" width="40.68" height="36.94"/>
		<rect x="1358.01" y="373.93" class="st2" width="40.68" height="36.94"/>
		<rect x="1358.01" y="423.75" class="st2" width="40.68" height="8.05"/>
		<rect x="1358.01" y="423.75" class="st2" width="40.68" height="8.05"/>
		<rect x="1358.01" y="423.75" class="st2" width="40.68" height="8.05"/>
	</g>
	<g>
		<rect x="472.45" y="551.38" class="st2" width="40.68" height="36.94"/>
		<rect x="472.45" y="551.38" class="st2" width="40.68" height="36.94"/>
		<rect x="472.45" y="551.38" class="st2" width="40.68" height="36.94"/>
		<rect x="472.45" y="601.2" class="st2" width="40.68" height="8.05"/>
		<rect x="472.45" y="601.2" class="st2" width="40.68" height="8.05"/>
		<rect x="472.45" y="601.2" class="st2" width="40.68" height="8.05"/>
	</g>
	<g>
		<rect x="1005.63" y="551.38" class="st2" width="40.68" height="36.94"/>
		<rect x="1005.63" y="551.38" class="st2" width="40.68" height="36.94"/>
		<rect x="1005.63" y="551.38" class="st2" width="40.68" height="36.94"/>
		<rect x="1005.63" y="601.2" class="st2" width="40.68" height="8.05"/>
		<rect x="1005.63" y="601.2" class="st2" width="40.68" height="8.05"/>
		<rect x="1005.63" y="601.2" class="st2" width="40.68" height="8.05"/>
	</g>
	<g>
		<rect x="916.77" y="551.38" class="st2" width="40.68" height="36.94"/>
		<rect x="916.77" y="551.38" class="st2" width="40.68" height="36.94"/>
		<rect x="916.77" y="551.38" class="st2" width="40.68" height="36.94"/>
		<rect x="916.77" y="601.2" class="st2" width="40.68" height="8.05"/>
		<rect x="916.77" y="601.2" class="st2" width="40.68" height="8.05"/>
		<rect x="916.77" y="601.2" class="st2" width="40.68" height="8.05"/>
	</g>
	<g>
		<rect x="827.9" y="551.38" class="st2" width="40.68" height="36.94"/>
		<rect x="827.9" y="551.38" class="st2" width="40.68" height="36.94"/>
		<rect x="827.9" y="551.38" class="st2" width="40.68" height="36.94"/>
		<rect x="827.9" y="601.2" class="st2" width="40.68" height="8.05"/>
		<rect x="827.9" y="601.2" class="st2" width="40.68" height="8.05"/>
		<rect x="827.9" y="601.2" class="st2" width="40.68" height="8.05"/>
	</g>
	<g>
		<rect x="739.04" y="551.38" class="st2" width="40.68" height="36.94"/>
		<rect x="739.04" y="551.38" class="st2" width="40.68" height="36.94"/>
		<rect x="739.04" y="551.38" class="st2" width="40.68" height="36.94"/>
		<rect x="739.04" y="601.2" class="st2" width="40.68" height="8.05"/>
		<rect x="739.04" y="601.2" class="st2" width="40.68" height="8.05"/>
		<rect x="739.04" y="601.2" class="st2" width="40.68" height="8.05"/>
	</g>
	<g>
		<rect x="650.18" y="551.38" class="st2" width="40.68" height="36.94"/>
		<rect x="650.18" y="551.38" class="st2" width="40.68" height="36.94"/>
		<rect x="650.18" y="551.38" class="st2" width="40.68" height="36.94"/>
		<rect x="650.18" y="601.2" class="st2" width="40.68" height="8.05"/>
		<rect x="650.18" y="601.2" class="st2" width="40.68" height="8.05"/>
		<rect x="650.18" y="601.2" class="st2" width="40.68" height="8.05"/>
	</g>
	<g>
		<rect x="561.31" y="551.38" class="st2" width="40.68" height="36.94"/>
		<rect x="561.31" y="551.38" class="st2" width="40.68" height="36.94"/>
		<rect x="561.31" y="551.38" class="st2" width="40.68" height="36.94"/>
		<rect x="561.31" y="601.2" class="st2" width="40.68" height="8.05"/>
		<rect x="561.31" y="601.2" class="st2" width="40.68" height="8.05"/>
		<rect x="561.31" y="601.2" class="st2" width="40.68" height="8.05"/>
	</g>
	<g>
		<rect x="1265.6" y="551.38" class="st2" width="40.68" height="36.94"/>
		<rect x="1265.6" y="551.38" class="st2" width="40.68" height="36.94"/>
		<rect x="1265.6" y="551.38" class="st2" width="40.68" height="36.94"/>
		<rect x="1265.6" y="601.2" class="st2" width="40.68" height="8.05"/>
		<rect x="1265.6" y="601.2" class="st2" width="40.68" height="8.05"/>
		<rect x="1265.6" y="601.2" class="st2" width="40.68" height="8.05"/>
	</g>
	<g>
		<rect x="1176.74" y="551.38" class="st2" width="40.68" height="36.94"/>
		<rect x="1176.74" y="551.38" class="st2" width="40.68" height="36.94"/>
		<rect x="1176.74" y="551.38" class="st2" width="40.68" height="36.94"/>
		<rect x="1176.74" y="601.2" class="st2" width="40.68" height="8.05"/>
		<rect x="1176.74" y="601.2" class="st2" width="40.68" height="8.05"/>
		<rect x="1176.74" y="601.2" class="st2" width="40.68" height="8.05"/>
	</g>
	<g>
		<rect x="1087.87" y="551.38" class="st2" width="40.68" height="36.94"/>
		<rect x="1087.87" y="551.38" class="st2" width="40.68" height="36.94"/>
		<rect x="1087.87" y="551.38" class="st2" width="40.68" height="36.94"/>
		<rect x="1087.87" y="601.2" class="st2" width="40.68" height="8.05"/>
		<rect x="1087.87" y="601.2" class="st2" width="40.68" height="8.05"/>
		<rect x="1087.87" y="601.2" class="st2" width="40.68" height="8.05"/>
	</g>
</g>
</svg>
